# xmcd
#
# Track frame offsets:
#	150
#	18662
#	34598
#	52755
#	71355
#	87256
#	106448
#	125442
#	142771
#	157784
#	175829
#	195528
#	213266
#
# Disc length: 3113 seconds
# Revision: 0
# Processed by: cddbd v1.5.2PL0 Copyright (c) Steve Scherf et al.
# Submitted via: dBpowerAMP V12.0
#
DISCID=9e0c270d
DTITLE=Andy Sugarcane Collins - Way Up North
DYEAR=2014
DGENRE=Blues
TTITLE0=Way Up North
TTITLE1=Roadtrain
TTITLE2=Gulf Road
TTITLE3=Pascoe River
TTITLE4=The Barramundi Kid
TTITLE5=Francis Gabriel Lam
TTITLE6=Michael "Tarzan" Fomenko
TTITLE7=Barron Delta Blue
TTITLE8=I Found Love
TTITLE9=Lake Street Serenade
TTITLE10=Swinging in the Trees
TTITLE11=Flowers by the Roadside
TTITLE12=Round the Country
EXTD=
EXTT0=
EXTT1=
EXTT2=
EXTT3=
EXTT4=
EXTT5=
EXTT6=
EXTT7=
EXTT8=
EXTT9=
EXTT10=
EXTT11=
EXTT12=
PLAYORDER=
